<?xml version="1.0" encoding="UTF-8"?>
<svg width="20px" height="20px" viewBox="0 0 20 20" version="1.1" xmlns="http://www.w3.org/2000/svg" xmlns:xlink="http://www.w3.org/1999/xlink">
    <!-- Generator: Sketch 58 (84663) - https://sketch.com -->
    <title>Group 7</title>
    <desc>Created with Sketch.</desc>
    <g id="Login-Page-Desktop" stroke="none" stroke-width="1" fill="none" fill-rule="evenodd">
        <g id="MB_Account-settings-Account-DT" transform="translate(-940.000000, -432.000000)">
            <g id="Group-2" transform="translate(508.000000, 311.000000)">
                <g id="Settings/-Border" transform="translate(20.000000, 93.000000)">
                    <g id="Group">
                        <g id="Placeholder/-Password" transform="translate(124.000000, 25.000000)">
                            <g id="Group-7" transform="translate(288.000000, 3.000000)">
                                <rect id="Rectangle" x="0" y="0" width="20" height="20"></rect>
                                <path d="M19.6738791,9.44639044 L19.7010141,9.49245367 C19.8855219,9.80566665 19.885527,10.1943363 19.7010273,10.5075541 L19.6745185,10.552557 C17.0637212,14.8508523 13.8388817,17 10,17 C8.92520187,17 7.8985367,16.8315346 6.9200045,16.4946039 L9.45250802,13.9628421 C9.63150521,13.9873422 9.81427441,14 10,14 C12.209139,14 14,12.209139 14,10 L13.9991847,9.999 L13.4141847,9.999 L17.2065325,6.20747737 C18.0822719,7.1005982 18.9047208,8.18023589 19.6738791,9.44639044 Z M10,3 C12.0784167,3 13.9768411,3.62997318 15.6952732,4.88991954 L10.5861847,9.999 L10.5861825,10 C10.455657,10 10.3316993,9.94905249 10.2394323,9.86023785 L10.1765666,9.78673117 C10.0358046,9.5856426 10.0636349,9.3169664 10.230442,9.14852379 L10.2994514,9.09038404 L12.9140281,7.25982946 C12.1844727,6.48428177 11.1487914,6 10,6 C7.790861,6 6,7.790861 6,10 C6,11.2541393 6.57717479,12.3734722 7.4803896,13.106864 L5.00490039,15.5824385 C3.27873268,14.5162488 1.72440337,12.8486248 0.341912453,10.5795664 L0.299894793,10.5083435 C0.11487603,10.1947232 0.11495302,9.80532223 0.300095785,9.49177518 L0.351647265,9.40447058 C2.95781526,5.13482353 6.17393284,3 10,3 Z" id="Combined-Shape" fill="#848484" fill-rule="nonzero"></path>
                                <rect id="Rectangle" fill="#848484" transform="translate(10.000000, 10.000000) rotate(-45.000000) translate(-10.000000, -10.000000) " x="-2" y="9" width="24" height="2"></rect>
                            </g>
                        </g>
                    </g>
                </g>
            </g>
        </g>
    </g>
</svg>