<svg width="33" height="22" fill="none" xmlns="http://www.w3.org/2000/svg"><path fill-rule="evenodd" clip-rule="evenodd" d="M27.78 20.16v-1.9h-.44v1.1a.8.8 0 00-.66-.31 1.1 1.1 0 100 2.2c.26.01.5-.1.66-.3v.25h.44v-1.04zM14.11 19.1h.76v.42h-.75v.96c0 .21.08.36.3.36.15 0 .29-.05.41-.12l.13.39c-.17.1-.37.16-.57.16-.54 0-.73-.29-.73-.78v-.97h-.43v-.42h.42v-.64h.46v.64zm-6.1.79v1.32h-.46v-1.16c0-.36-.15-.56-.46-.56a.5.5 0 00-.52.56v1.17h-.46v-1.17c0-.36-.15-.56-.46-.56a.5.5 0 00-.51.56v1.16h-.47v-2.1h.46v.25a.7.7 0 01.62-.31c.28-.01.55.13.7.37.16-.25.44-.39.74-.37a.78.78 0 01.83.84zm10.77-.84a.62.62 0 00-.56.3v-.25h-.45v2.11h.46v-1.18c0-.35.15-.54.44-.54.1 0 .2.01.28.05l.15-.44a.98.98 0 00-.33-.06zm-6.78 0c.3-.01.6.07.86.22l-.2.37c-.2-.12-.43-.18-.66-.18-.25 0-.4.1-.4.25 0 .14.16.18.36.2l.22.03c.45.07.73.23.73.63s-.35.7-.96.7c-.32 0-.64-.1-.91-.28l.22-.36c.2.15.45.23.7.22.31 0 .48-.09.48-.25 0-.12-.12-.19-.37-.22l-.22-.03c-.47-.07-.73-.28-.73-.63 0-.41.35-.67.88-.67zm13.15 0a.62.62 0 00-.56.3v-.25h-.45v2.11h.46v-1.18c0-.35.15-.54.44-.54.1 0 .2.01.28.05l.15-.44a.98.98 0 00-.33-.06zm-5.6 1.9c-.2-.2-.32-.5-.31-.8a1.07 1.07 0 011.12-1.11c.28-.01.55.08.76.25l-.22.37a.93.93 0 00-.55-.19.68.68 0 000 1.35c.2 0 .4-.07.55-.19l.22.37a1.1 1.1 0 01-.76.25c-.3.02-.59-.09-.8-.3zm3.98-.8V19.1h-.45v.26a.8.8 0 00-.67-.31 1.1 1.1 0 100 2.2c.26.01.5-.1.67-.3v.25h.45v-1.05zm-1.04-.6a.64.64 0 10-.05 1.28.64.64 0 00.05-1.28zm-6.2-.5a1.1 1.1 0 10.03 2.2c.32.02.63-.08.88-.28l-.22-.34a1 1 0 01-.61.22.58.58 0 01-.64-.52h1.57v-.17c0-.67-.41-1.1-1-1.1v-.01zm.38.55a.52.52 0 00-.38-.14.54.54 0 00-.57.51h1.1a.52.52 0 00-.15-.37zm11.88 1.3a.22.22 0 01.15.06l.05.07a.2.2 0 01-.12.27.2.2 0 01-.08.02.22.22 0 01-.2-.13.2.2 0 01.11-.27.22.22 0 01.1-.02zm0 .38a.16.16 0 00.11-.05.16.16 0 000-.22.16.16 0 00-.18-.04.16.16 0 00-.05.04.16.16 0 000 .22l.05.03.07.02zm.07-.25a.09.09 0 00-.06-.02h-.1v.2h.05v-.07h.02l.06.07h.05l-.06-.07.04-.02a.05.05 0 00.02-.04c0-.02 0-.04-.02-.05zm-.1.02v.05h.07v-.02-.02h-.08zm-1.77-1.5a.64.64 0 10-.05 1.28.64.64 0 00.05-1.27zm-16.15.6V19.1h-.46v.26a.8.8 0 00-.66-.31 1.1 1.1 0 100 2.2c.26.01.5-.1.66-.3v.25h.46v-1.04zm-1.05-.6a.64.64 0 00-.66.6.63.63 0 00.64.68.64.64 0 00.02-1.27z" fill="#231F20"/><path fill="#FF5F00" d="M12.71 3.04h6.95v12.48h-6.95z"/><path d="M13.15 9.28a7.92 7.92 0 013.03-6.24 7.94 7.94 0 100 12.48 7.92 7.92 0 01-3.03-6.24z" fill="#EB001B"/><path d="M29.03 9.28a7.94 7.94 0 01-12.85 6.24 7.94 7.94 0 000-12.48 7.94 7.94 0 0112.85 6.24z" fill="#F79E1B"/><path fill-rule="evenodd" clip-rule="evenodd" d="M28.27 13.94v.26h-.05v-.26h-.1v-.05h.25v.05h-.1zm.51-.05v.3l-.05.01v-.23l-.08.2h-.06l-.09-.2v.23h-.06v-.31h.08l.09.22.09-.22h.08z" fill="#F79E1B"/></svg>