<svg width="79" height="26" fill="none" xmlns="http://www.w3.org/2000/svg"><path d="M78.5 25.2c-.2.02-.37.04-.53.04-1.58 0-3.16-.01-4.73.02-.44 0-.57-.2-.64-.57-.17-.9-.38-1.81-.55-2.72-.05-.3-.19-.4-.49-.4h-7.35c-.33 0-.45.15-.55.43a68.6 68.6 0 01-1.01 2.81c-.07.18-.32.41-.48.42-1.98.02-3.96.01-5.94 0-.06 0-.13-.02-.27-.06l.83-2.03 8.5-20.48c.58-1.39 1.5-2.02 3-2.02 1.52 0 3.05.02 4.57-.01.43 0 .62.12.7.55l2.5 12.11 2.4 11.6.04.32zM69.06 7.57c-.07 0-.13-.02-.19-.03l-3.23 9.01.71.03h3.93c.62 0 .64-.05.51-.67l-.97-4.72-.76-3.62zM29.93.71l-.68 1.71-9.3 22.37c-.14.35-.34.46-.7.46-1.88-.02-3.75-.02-5.62 0-.4 0-.57-.1-.67-.53a6713.7 6713.7 0 00-5.07-19.7 2.4 2.4 0 00-1.25-1.54A24.25 24.25 0 00.92 1.46l-.56-.15C.34.8.53.63 1.04.63c3.32.02 6.65 0 9.98.01 1.63 0 2.77.91 3.08 2.51.51 2.65 1 5.3 1.48 7.94l1.06 5.67c.02.15.08.3.18.6l1.1-2.78 5.3-13.52c.08-.18.33-.4.5-.4C25.7.63 27.66.64 29.62.64c.08 0 .16.04.32.07zM39.32 19.16c1.41.42 2.73.9 4.1 1.18 1.5.3 3.05.37 4.54-.22 1.1-.43 1.65-1.16 1.63-2.14a1.92 1.92 0 00-.97-1.6c-.83-.54-1.72-.99-2.57-1.5-.97-.6-1.97-1.15-2.86-1.85-2.85-2.26-2.96-5.53-1.44-8.24 1.2-2.14 3.16-3.33 5.44-4a15.8 15.8 0 019.7.33c.24.08.46.13.39.5-.34 1.51-.65 3.03-.97 4.56l-.1.2c-.82-.26-1.62-.56-2.44-.75a8.94 8.94 0 00-4.57-.07c-.4.11-.81.33-1.15.59-.93.72-.99 1.8-.1 2.56.53.47 1.16.83 1.77 1.2 1.33.81 2.74 1.5 3.98 2.42 3.69 2.75 2.74 7.52.71 9.85a9.9 9.9 0 01-5.34 3.03c-2.74.66-5.48.52-8.22-.06-.78-.17-1.55-.42-2.3-.68-.14-.04-.31-.31-.29-.44.32-1.58.66-3.15 1-4.72.02-.08.07-.15.06-.15zM27.53 25.18l.82-3.84c.9-4.29 1.8-8.58 2.72-12.87.52-2.48 1.05-4.96 1.6-7.44.03-.15.25-.37.38-.37 1.92-.02 3.85-.01 5.77 0 .03 0 .06.03.16.07l-.55 2.68-3.5 16.52-1.03 4.82c-.05.26-.08.5-.46.5-1.87-.02-3.75 0-5.62 0l-.29-.07z" fill="#fff"/></svg>