<?xml version="1.0" encoding="UTF-8"?>
<svg width="148px" height="156px" viewBox="0 0 148 156" version="1.1" xmlns="http://www.w3.org/2000/svg" xmlns:xlink="http://www.w3.org/1999/xlink">
    <!-- Generator: Sketch 58 (84663) - https://sketch.com -->
    <title>Group 27</title>
    <desc>Created with Sketch.</desc>
    <g id="Page-1" stroke="none" stroke-width="1" fill="none" fill-rule="evenodd" opacity="0.15">
        <g id="MB_Main-Page_Mobile_2" transform="translate(0.000000, -6980.000000)" fill="#D8D8D8">
            <g id="Group-12" transform="translate(0.000000, 6632.000000)">
                <g id="Group-27" transform="translate(0.000000, 348.000000)">
                    <g id="Group-4" transform="translate(0.000000, 40.000000)">
                        <circle id="Oval" cx="2" cy="2" r="2"></circle>
                        <circle id="Oval" cx="10" cy="2" r="2"></circle>
                        <circle id="Oval" cx="18" cy="2" r="2"></circle>
                        <circle id="Oval" cx="26" cy="2" r="2"></circle>
                        <circle id="Oval" cx="34" cy="2" r="2"></circle>
                        <circle id="Oval" cx="42" cy="2" r="2"></circle>
                        <circle id="Oval" cx="50" cy="2" r="2"></circle>
                        <circle id="Oval" cx="58" cy="2" r="2"></circle>
                        <circle id="Oval" cx="2" cy="10" r="2"></circle>
                        <circle id="Oval" cx="10" cy="10" r="2"></circle>
                        <circle id="Oval" cx="18" cy="10" r="2"></circle>
                        <circle id="Oval" cx="26" cy="10" r="2"></circle>
                        <circle id="Oval" cx="34" cy="10" r="2"></circle>
                        <circle id="Oval" cx="42" cy="10" r="2"></circle>
                        <circle id="Oval" cx="50" cy="10" r="2"></circle>
                        <circle id="Oval" cx="58" cy="10" r="2"></circle>
                        <circle id="Oval" cx="2" cy="18" r="2"></circle>
                        <circle id="Oval" cx="10" cy="18" r="2"></circle>
                        <circle id="Oval" cx="18" cy="18" r="2"></circle>
                        <circle id="Oval" cx="26" cy="18" r="2"></circle>
                        <circle id="Oval" cx="34" cy="18" r="2"></circle>
                        <circle id="Oval" cx="42" cy="18" r="2"></circle>
                        <circle id="Oval" cx="50" cy="18" r="2"></circle>
                        <circle id="Oval" cx="58" cy="18" r="2"></circle>
                        <circle id="Oval" cx="2" cy="26" r="2"></circle>
                        <circle id="Oval" cx="10" cy="26" r="2"></circle>
                        <circle id="Oval" cx="18" cy="26" r="2"></circle>
                        <circle id="Oval" cx="26" cy="26" r="2"></circle>
                        <circle id="Oval" cx="34" cy="26" r="2"></circle>
                        <circle id="Oval" cx="42" cy="26" r="2"></circle>
                        <circle id="Oval" cx="50" cy="26" r="2"></circle>
                        <circle id="Oval" cx="58" cy="26" r="2"></circle>
                        <circle id="Oval" cx="2" cy="34" r="2"></circle>
                        <circle id="Oval" cx="10" cy="34" r="2"></circle>
                        <circle id="Oval" cx="18" cy="34" r="2"></circle>
                        <circle id="Oval" cx="26" cy="34" r="2"></circle>
                        <circle id="Oval" cx="34" cy="34" r="2"></circle>
                        <circle id="Oval" cx="42" cy="34" r="2"></circle>
                        <circle id="Oval" cx="50" cy="34" r="2"></circle>
                        <circle id="Oval" cx="58" cy="34" r="2"></circle>
                    </g>
                    <g id="Group-4" transform="translate(64.000000, 40.000000)">
                        <circle id="Oval" cx="2" cy="2" r="2"></circle>
                        <circle id="Oval" cx="10" cy="2" r="2"></circle>
                        <circle id="Oval" cx="18" cy="2" r="2"></circle>
                        <circle id="Oval" cx="26" cy="2" r="2"></circle>
                        <circle id="Oval" cx="34" cy="2" r="2"></circle>
                        <circle id="Oval" cx="42" cy="2" r="2"></circle>
                        <circle id="Oval" cx="50" cy="2" r="2"></circle>
                        <circle id="Oval" cx="58" cy="2" r="2"></circle>
                        <circle id="Oval" cx="2" cy="10" r="2"></circle>
                        <circle id="Oval" cx="10" cy="10" r="2"></circle>
                        <circle id="Oval" cx="18" cy="10" r="2"></circle>
                        <circle id="Oval" cx="26" cy="10" r="2"></circle>
                        <circle id="Oval" cx="34" cy="10" r="2"></circle>
                        <circle id="Oval" cx="42" cy="10" r="2"></circle>
                        <circle id="Oval" cx="50" cy="10" r="2"></circle>
                        <circle id="Oval" cx="58" cy="10" r="2"></circle>
                        <circle id="Oval" cx="2" cy="18" r="2"></circle>
                        <circle id="Oval" cx="10" cy="18" r="2"></circle>
                        <circle id="Oval" cx="18" cy="18" r="2"></circle>
                        <circle id="Oval" cx="26" cy="18" r="2"></circle>
                        <circle id="Oval" cx="34" cy="18" r="2"></circle>
                        <circle id="Oval" cx="42" cy="18" r="2"></circle>
                        <circle id="Oval" cx="50" cy="18" r="2"></circle>
                        <circle id="Oval" cx="58" cy="18" r="2"></circle>
                        <circle id="Oval" cx="2" cy="26" r="2"></circle>
                        <circle id="Oval" cx="10" cy="26" r="2"></circle>
                        <circle id="Oval" cx="18" cy="26" r="2"></circle>
                        <circle id="Oval" cx="26" cy="26" r="2"></circle>
                        <circle id="Oval" cx="34" cy="26" r="2"></circle>
                        <circle id="Oval" cx="42" cy="26" r="2"></circle>
                        <circle id="Oval" cx="50" cy="26" r="2"></circle>
                        <circle id="Oval" cx="58" cy="26" r="2"></circle>
                        <circle id="Oval" cx="2" cy="34" r="2"></circle>
                        <circle id="Oval" cx="10" cy="34" r="2"></circle>
                        <circle id="Oval" cx="18" cy="34" r="2"></circle>
                        <circle id="Oval" cx="26" cy="34" r="2"></circle>
                        <circle id="Oval" cx="34" cy="34" r="2"></circle>
                        <circle id="Oval" cx="42" cy="34" r="2"></circle>
                        <circle id="Oval" cx="50" cy="34" r="2"></circle>
                        <circle id="Oval" cx="58" cy="34" r="2"></circle>
                    </g>
                    <g id="Group-4" transform="translate(0.000000, 80.000000)">
                        <circle id="Oval" cx="2" cy="2" r="2"></circle>
                        <circle id="Oval" cx="10" cy="2" r="2"></circle>
                        <circle id="Oval" cx="18" cy="2" r="2"></circle>
                        <circle id="Oval" cx="26" cy="2" r="2"></circle>
                        <circle id="Oval" cx="34" cy="2" r="2"></circle>
                        <circle id="Oval" cx="42" cy="2" r="2"></circle>
                        <circle id="Oval" cx="50" cy="2" r="2"></circle>
                        <circle id="Oval" cx="58" cy="2" r="2"></circle>
                        <circle id="Oval" cx="2" cy="10" r="2"></circle>
                        <circle id="Oval" cx="10" cy="10" r="2"></circle>
                        <circle id="Oval" cx="18" cy="10" r="2"></circle>
                        <circle id="Oval" cx="26" cy="10" r="2"></circle>
                        <circle id="Oval" cx="34" cy="10" r="2"></circle>
                        <circle id="Oval" cx="42" cy="10" r="2"></circle>
                        <circle id="Oval" cx="50" cy="10" r="2"></circle>
                        <circle id="Oval" cx="58" cy="10" r="2"></circle>
                        <circle id="Oval" cx="2" cy="18" r="2"></circle>
                        <circle id="Oval" cx="10" cy="18" r="2"></circle>
                        <circle id="Oval" cx="18" cy="18" r="2"></circle>
                        <circle id="Oval" cx="26" cy="18" r="2"></circle>
                        <circle id="Oval" cx="34" cy="18" r="2"></circle>
                        <circle id="Oval" cx="42" cy="18" r="2"></circle>
                        <circle id="Oval" cx="50" cy="18" r="2"></circle>
                        <circle id="Oval" cx="58" cy="18" r="2"></circle>
                        <circle id="Oval" cx="2" cy="26" r="2"></circle>
                        <circle id="Oval" cx="10" cy="26" r="2"></circle>
                        <circle id="Oval" cx="18" cy="26" r="2"></circle>
                        <circle id="Oval" cx="26" cy="26" r="2"></circle>
                        <circle id="Oval" cx="34" cy="26" r="2"></circle>
                        <circle id="Oval" cx="42" cy="26" r="2"></circle>
                        <circle id="Oval" cx="50" cy="26" r="2"></circle>
                        <circle id="Oval" cx="58" cy="26" r="2"></circle>
                        <circle id="Oval" cx="2" cy="34" r="2"></circle>
                        <circle id="Oval" cx="10" cy="34" r="2"></circle>
                        <circle id="Oval" cx="18" cy="34" r="2"></circle>
                        <circle id="Oval" cx="26" cy="34" r="2"></circle>
                        <circle id="Oval" cx="34" cy="34" r="2"></circle>
                        <circle id="Oval" cx="42" cy="34" r="2"></circle>
                        <circle id="Oval" cx="50" cy="34" r="2"></circle>
                        <circle id="Oval" cx="58" cy="34" r="2"></circle>
                    </g>
                    <g id="Group-4" transform="translate(64.000000, 80.000000)">
                        <circle id="Oval" cx="2" cy="2" r="2"></circle>
                        <circle id="Oval" cx="10" cy="2" r="2"></circle>
                        <circle id="Oval" cx="18" cy="2" r="2"></circle>
                        <circle id="Oval" cx="26" cy="2" r="2"></circle>
                        <circle id="Oval" cx="34" cy="2" r="2"></circle>
                        <circle id="Oval" cx="42" cy="2" r="2"></circle>
                        <circle id="Oval" cx="50" cy="2" r="2"></circle>
                        <circle id="Oval" cx="58" cy="2" r="2"></circle>
                        <circle id="Oval" cx="2" cy="10" r="2"></circle>
                        <circle id="Oval" cx="10" cy="10" r="2"></circle>
                        <circle id="Oval" cx="18" cy="10" r="2"></circle>
                        <circle id="Oval" cx="26" cy="10" r="2"></circle>
                        <circle id="Oval" cx="34" cy="10" r="2"></circle>
                        <circle id="Oval" cx="42" cy="10" r="2"></circle>
                        <circle id="Oval" cx="50" cy="10" r="2"></circle>
                        <circle id="Oval" cx="58" cy="10" r="2"></circle>
                        <circle id="Oval" cx="2" cy="18" r="2"></circle>
                        <circle id="Oval" cx="10" cy="18" r="2"></circle>
                        <circle id="Oval" cx="18" cy="18" r="2"></circle>
                        <circle id="Oval" cx="26" cy="18" r="2"></circle>
                        <circle id="Oval" cx="34" cy="18" r="2"></circle>
                        <circle id="Oval" cx="42" cy="18" r="2"></circle>
                        <circle id="Oval" cx="50" cy="18" r="2"></circle>
                        <circle id="Oval" cx="58" cy="18" r="2"></circle>
                        <circle id="Oval" cx="2" cy="26" r="2"></circle>
                        <circle id="Oval" cx="10" cy="26" r="2"></circle>
                        <circle id="Oval" cx="18" cy="26" r="2"></circle>
                        <circle id="Oval" cx="26" cy="26" r="2"></circle>
                        <circle id="Oval" cx="34" cy="26" r="2"></circle>
                        <circle id="Oval" cx="42" cy="26" r="2"></circle>
                        <circle id="Oval" cx="50" cy="26" r="2"></circle>
                        <circle id="Oval" cx="58" cy="26" r="2"></circle>
                        <circle id="Oval" cx="2" cy="34" r="2"></circle>
                        <circle id="Oval" cx="10" cy="34" r="2"></circle>
                        <circle id="Oval" cx="18" cy="34" r="2"></circle>
                        <circle id="Oval" cx="26" cy="34" r="2"></circle>
                        <circle id="Oval" cx="34" cy="34" r="2"></circle>
                        <circle id="Oval" cx="42" cy="34" r="2"></circle>
                        <circle id="Oval" cx="50" cy="34" r="2"></circle>
                        <circle id="Oval" cx="58" cy="34" r="2"></circle>
                    </g>
                    <g id="Group-4" transform="translate(0.000000, 120.000000)">
                        <circle id="Oval" cx="2" cy="2" r="2"></circle>
                        <circle id="Oval" cx="10" cy="2" r="2"></circle>
                        <circle id="Oval" cx="18" cy="2" r="2"></circle>
                        <circle id="Oval" cx="26" cy="2" r="2"></circle>
                        <circle id="Oval" cx="34" cy="2" r="2"></circle>
                        <circle id="Oval" cx="42" cy="2" r="2"></circle>
                        <circle id="Oval" cx="50" cy="2" r="2"></circle>
                        <circle id="Oval" cx="58" cy="2" r="2"></circle>
                        <circle id="Oval" cx="2" cy="10" r="2"></circle>
                        <circle id="Oval" cx="10" cy="10" r="2"></circle>
                        <circle id="Oval" cx="18" cy="10" r="2"></circle>
                        <circle id="Oval" cx="26" cy="10" r="2"></circle>
                        <circle id="Oval" cx="34" cy="10" r="2"></circle>
                        <circle id="Oval" cx="42" cy="10" r="2"></circle>
                        <circle id="Oval" cx="50" cy="10" r="2"></circle>
                        <circle id="Oval" cx="58" cy="10" r="2"></circle>
                        <circle id="Oval" cx="2" cy="18" r="2"></circle>
                        <circle id="Oval" cx="10" cy="18" r="2"></circle>
                        <circle id="Oval" cx="18" cy="18" r="2"></circle>
                        <circle id="Oval" cx="26" cy="18" r="2"></circle>
                        <circle id="Oval" cx="34" cy="18" r="2"></circle>
                        <circle id="Oval" cx="42" cy="18" r="2"></circle>
                        <circle id="Oval" cx="50" cy="18" r="2"></circle>
                        <circle id="Oval" cx="58" cy="18" r="2"></circle>
                        <circle id="Oval" cx="2" cy="26" r="2"></circle>
                        <circle id="Oval" cx="10" cy="26" r="2"></circle>
                        <circle id="Oval" cx="18" cy="26" r="2"></circle>
                        <circle id="Oval" cx="26" cy="26" r="2"></circle>
                        <circle id="Oval" cx="34" cy="26" r="2"></circle>
                        <circle id="Oval" cx="42" cy="26" r="2"></circle>
                        <circle id="Oval" cx="50" cy="26" r="2"></circle>
                        <circle id="Oval" cx="58" cy="26" r="2"></circle>
                        <circle id="Oval" cx="2" cy="34" r="2"></circle>
                        <circle id="Oval" cx="10" cy="34" r="2"></circle>
                        <circle id="Oval" cx="18" cy="34" r="2"></circle>
                        <circle id="Oval" cx="26" cy="34" r="2"></circle>
                        <circle id="Oval" cx="34" cy="34" r="2"></circle>
                        <circle id="Oval" cx="42" cy="34" r="2"></circle>
                        <circle id="Oval" cx="50" cy="34" r="2"></circle>
                        <circle id="Oval" cx="58" cy="34" r="2"></circle>
                    </g>
                    <g id="Group-4" transform="translate(64.000000, 120.000000)">
                        <circle id="Oval" cx="2" cy="2" r="2"></circle>
                        <circle id="Oval" cx="10" cy="2" r="2"></circle>
                        <circle id="Oval" cx="18" cy="2" r="2"></circle>
                        <circle id="Oval" cx="26" cy="2" r="2"></circle>
                        <circle id="Oval" cx="34" cy="2" r="2"></circle>
                        <circle id="Oval" cx="42" cy="2" r="2"></circle>
                        <circle id="Oval" cx="50" cy="2" r="2"></circle>
                        <circle id="Oval" cx="58" cy="2" r="2"></circle>
                        <circle id="Oval" cx="2" cy="10" r="2"></circle>
                        <circle id="Oval" cx="10" cy="10" r="2"></circle>
                        <circle id="Oval" cx="18" cy="10" r="2"></circle>
                        <circle id="Oval" cx="26" cy="10" r="2"></circle>
                        <circle id="Oval" cx="34" cy="10" r="2"></circle>
                        <circle id="Oval" cx="42" cy="10" r="2"></circle>
                        <circle id="Oval" cx="50" cy="10" r="2"></circle>
                        <circle id="Oval" cx="58" cy="10" r="2"></circle>
                        <circle id="Oval" cx="2" cy="18" r="2"></circle>
                        <circle id="Oval" cx="10" cy="18" r="2"></circle>
                        <circle id="Oval" cx="18" cy="18" r="2"></circle>
                        <circle id="Oval" cx="26" cy="18" r="2"></circle>
                        <circle id="Oval" cx="34" cy="18" r="2"></circle>
                        <circle id="Oval" cx="42" cy="18" r="2"></circle>
                        <circle id="Oval" cx="50" cy="18" r="2"></circle>
                        <circle id="Oval" cx="58" cy="18" r="2"></circle>
                        <circle id="Oval" cx="2" cy="26" r="2"></circle>
                        <circle id="Oval" cx="10" cy="26" r="2"></circle>
                        <circle id="Oval" cx="18" cy="26" r="2"></circle>
                        <circle id="Oval" cx="26" cy="26" r="2"></circle>
                        <circle id="Oval" cx="34" cy="26" r="2"></circle>
                        <circle id="Oval" cx="42" cy="26" r="2"></circle>
                        <circle id="Oval" cx="50" cy="26" r="2"></circle>
                        <circle id="Oval" cx="58" cy="26" r="2"></circle>
                        <circle id="Oval" cx="2" cy="34" r="2"></circle>
                        <circle id="Oval" cx="10" cy="34" r="2"></circle>
                        <circle id="Oval" cx="18" cy="34" r="2"></circle>
                        <circle id="Oval" cx="26" cy="34" r="2"></circle>
                        <circle id="Oval" cx="34" cy="34" r="2"></circle>
                        <circle id="Oval" cx="42" cy="34" r="2"></circle>
                        <circle id="Oval" cx="50" cy="34" r="2"></circle>
                        <circle id="Oval" cx="58" cy="34" r="2"></circle>
                    </g>
                    <g id="Group-4" transform="translate(128.000000, 40.000000)">
                        <circle id="Oval" cx="2" cy="2" r="2"></circle>
                        <circle id="Oval" cx="10" cy="2" r="2"></circle>
                        <circle id="Oval" cx="18" cy="2" r="2"></circle>
                        <circle id="Oval" cx="2" cy="10" r="2"></circle>
                        <circle id="Oval" cx="10" cy="10" r="2"></circle>
                        <circle id="Oval" cx="18" cy="10" r="2"></circle>
                        <circle id="Oval" cx="2" cy="18" r="2"></circle>
                        <circle id="Oval" cx="10" cy="18" r="2"></circle>
                        <circle id="Oval" cx="18" cy="18" r="2"></circle>
                        <circle id="Oval" cx="2" cy="26" r="2"></circle>
                        <circle id="Oval" cx="10" cy="26" r="2"></circle>
                        <circle id="Oval" cx="18" cy="26" r="2"></circle>
                        <circle id="Oval" cx="2" cy="34" r="2"></circle>
                        <circle id="Oval" cx="10" cy="34" r="2"></circle>
                        <circle id="Oval" cx="18" cy="34" r="2"></circle>
                    </g>
                    <g id="Group-4">
                        <circle id="Oval" cx="2" cy="2" r="2"></circle>
                        <circle id="Oval" cx="10" cy="2" r="2"></circle>
                        <circle id="Oval" cx="18" cy="2" r="2"></circle>
                        <circle id="Oval" cx="26" cy="2" r="2"></circle>
                        <circle id="Oval" cx="34" cy="2" r="2"></circle>
                        <circle id="Oval" cx="42" cy="2" r="2"></circle>
                        <circle id="Oval" cx="50" cy="2" r="2"></circle>
                        <circle id="Oval" cx="58" cy="2" r="2"></circle>
                        <circle id="Oval" cx="2" cy="10" r="2"></circle>
                        <circle id="Oval" cx="10" cy="10" r="2"></circle>
                        <circle id="Oval" cx="18" cy="10" r="2"></circle>
                        <circle id="Oval" cx="26" cy="10" r="2"></circle>
                        <circle id="Oval" cx="34" cy="10" r="2"></circle>
                        <circle id="Oval" cx="42" cy="10" r="2"></circle>
                        <circle id="Oval" cx="50" cy="10" r="2"></circle>
                        <circle id="Oval" cx="58" cy="10" r="2"></circle>
                        <circle id="Oval" cx="2" cy="18" r="2"></circle>
                        <circle id="Oval" cx="10" cy="18" r="2"></circle>
                        <circle id="Oval" cx="18" cy="18" r="2"></circle>
                        <circle id="Oval" cx="26" cy="18" r="2"></circle>
                        <circle id="Oval" cx="34" cy="18" r="2"></circle>
                        <circle id="Oval" cx="42" cy="18" r="2"></circle>
                        <circle id="Oval" cx="50" cy="18" r="2"></circle>
                        <circle id="Oval" cx="58" cy="18" r="2"></circle>
                        <circle id="Oval" cx="2" cy="26" r="2"></circle>
                        <circle id="Oval" cx="10" cy="26" r="2"></circle>
                        <circle id="Oval" cx="18" cy="26" r="2"></circle>
                        <circle id="Oval" cx="26" cy="26" r="2"></circle>
                        <circle id="Oval" cx="34" cy="26" r="2"></circle>
                        <circle id="Oval" cx="42" cy="26" r="2"></circle>
                        <circle id="Oval" cx="50" cy="26" r="2"></circle>
                        <circle id="Oval" cx="58" cy="26" r="2"></circle>
                        <circle id="Oval" cx="2" cy="34" r="2"></circle>
                        <circle id="Oval" cx="10" cy="34" r="2"></circle>
                        <circle id="Oval" cx="18" cy="34" r="2"></circle>
                        <circle id="Oval" cx="26" cy="34" r="2"></circle>
                        <circle id="Oval" cx="34" cy="34" r="2"></circle>
                        <circle id="Oval" cx="42" cy="34" r="2"></circle>
                        <circle id="Oval" cx="50" cy="34" r="2"></circle>
                        <circle id="Oval" cx="58" cy="34" r="2"></circle>
                    </g>
                    <g id="Group-4" transform="translate(64.000000, 0.000000)">
                        <circle id="Oval" cx="2" cy="2" r="2"></circle>
                        <circle id="Oval" cx="10" cy="2" r="2"></circle>
                        <circle id="Oval" cx="18" cy="2" r="2"></circle>
                        <circle id="Oval" cx="26" cy="2" r="2"></circle>
                        <circle id="Oval" cx="34" cy="2" r="2"></circle>
                        <circle id="Oval" cx="42" cy="2" r="2"></circle>
                        <circle id="Oval" cx="50" cy="2" r="2"></circle>
                        <circle id="Oval" cx="58" cy="2" r="2"></circle>
                        <circle id="Oval" cx="2" cy="10" r="2"></circle>
                        <circle id="Oval" cx="10" cy="10" r="2"></circle>
                        <circle id="Oval" cx="18" cy="10" r="2"></circle>
                        <circle id="Oval" cx="26" cy="10" r="2"></circle>
                        <circle id="Oval" cx="34" cy="10" r="2"></circle>
                        <circle id="Oval" cx="42" cy="10" r="2"></circle>
                        <circle id="Oval" cx="50" cy="10" r="2"></circle>
                        <circle id="Oval" cx="58" cy="10" r="2"></circle>
                        <circle id="Oval" cx="2" cy="18" r="2"></circle>
                        <circle id="Oval" cx="10" cy="18" r="2"></circle>
                        <circle id="Oval" cx="18" cy="18" r="2"></circle>
                        <circle id="Oval" cx="26" cy="18" r="2"></circle>
                        <circle id="Oval" cx="34" cy="18" r="2"></circle>
                        <circle id="Oval" cx="42" cy="18" r="2"></circle>
                        <circle id="Oval" cx="50" cy="18" r="2"></circle>
                        <circle id="Oval" cx="58" cy="18" r="2"></circle>
                        <circle id="Oval" cx="2" cy="26" r="2"></circle>
                        <circle id="Oval" cx="10" cy="26" r="2"></circle>
                        <circle id="Oval" cx="18" cy="26" r="2"></circle>
                        <circle id="Oval" cx="26" cy="26" r="2"></circle>
                        <circle id="Oval" cx="34" cy="26" r="2"></circle>
                        <circle id="Oval" cx="42" cy="26" r="2"></circle>
                        <circle id="Oval" cx="50" cy="26" r="2"></circle>
                        <circle id="Oval" cx="58" cy="26" r="2"></circle>
                        <circle id="Oval" cx="2" cy="34" r="2"></circle>
                        <circle id="Oval" cx="10" cy="34" r="2"></circle>
                        <circle id="Oval" cx="18" cy="34" r="2"></circle>
                        <circle id="Oval" cx="26" cy="34" r="2"></circle>
                        <circle id="Oval" cx="34" cy="34" r="2"></circle>
                        <circle id="Oval" cx="42" cy="34" r="2"></circle>
                        <circle id="Oval" cx="50" cy="34" r="2"></circle>
                        <circle id="Oval" cx="58" cy="34" r="2"></circle>
                    </g>
                    <g id="Group-4" transform="translate(128.000000, 0.000000)">
                        <circle id="Oval" cx="2" cy="2" r="2"></circle>
                        <circle id="Oval" cx="10" cy="2" r="2"></circle>
                        <circle id="Oval" cx="18" cy="2" r="2"></circle>
                        <circle id="Oval" cx="2" cy="10" r="2"></circle>
                        <circle id="Oval" cx="10" cy="10" r="2"></circle>
                        <circle id="Oval" cx="18" cy="10" r="2"></circle>
                        <circle id="Oval" cx="2" cy="18" r="2"></circle>
                        <circle id="Oval" cx="10" cy="18" r="2"></circle>
                        <circle id="Oval" cx="18" cy="18" r="2"></circle>
                        <circle id="Oval" cx="2" cy="26" r="2"></circle>
                        <circle id="Oval" cx="10" cy="26" r="2"></circle>
                        <circle id="Oval" cx="18" cy="26" r="2"></circle>
                        <circle id="Oval" cx="2" cy="34" r="2"></circle>
                        <circle id="Oval" cx="10" cy="34" r="2"></circle>
                        <circle id="Oval" cx="18" cy="34" r="2"></circle>
                    </g>
                    <g id="Group-4" transform="translate(128.000000, 80.000000)">
                        <circle id="Oval" cx="2" cy="2" r="2"></circle>
                        <circle id="Oval" cx="10" cy="2" r="2"></circle>
                        <circle id="Oval" cx="18" cy="2" r="2"></circle>
                        <circle id="Oval" cx="2" cy="10" r="2"></circle>
                        <circle id="Oval" cx="10" cy="10" r="2"></circle>
                        <circle id="Oval" cx="18" cy="10" r="2"></circle>
                        <circle id="Oval" cx="2" cy="18" r="2"></circle>
                        <circle id="Oval" cx="10" cy="18" r="2"></circle>
                        <circle id="Oval" cx="18" cy="18" r="2"></circle>
                        <circle id="Oval" cx="2" cy="26" r="2"></circle>
                        <circle id="Oval" cx="10" cy="26" r="2"></circle>
                        <circle id="Oval" cx="18" cy="26" r="2"></circle>
                        <circle id="Oval" cx="2" cy="34" r="2"></circle>
                        <circle id="Oval" cx="10" cy="34" r="2"></circle>
                        <circle id="Oval" cx="18" cy="34" r="2"></circle>
                    </g>
                    <g id="Group-4" transform="translate(128.000000, 120.000000)">
                        <circle id="Oval" cx="2" cy="2" r="2"></circle>
                        <circle id="Oval" cx="10" cy="2" r="2"></circle>
                        <circle id="Oval" cx="18" cy="2" r="2"></circle>
                        <circle id="Oval" cx="2" cy="10" r="2"></circle>
                        <circle id="Oval" cx="10" cy="10" r="2"></circle>
                        <circle id="Oval" cx="18" cy="10" r="2"></circle>
                        <circle id="Oval" cx="2" cy="18" r="2"></circle>
                        <circle id="Oval" cx="10" cy="18" r="2"></circle>
                        <circle id="Oval" cx="18" cy="18" r="2"></circle>
                        <circle id="Oval" cx="2" cy="26" r="2"></circle>
                        <circle id="Oval" cx="10" cy="26" r="2"></circle>
                        <circle id="Oval" cx="18" cy="26" r="2"></circle>
                        <circle id="Oval" cx="2" cy="34" r="2"></circle>
                        <circle id="Oval" cx="10" cy="34" r="2"></circle>
                        <circle id="Oval" cx="18" cy="34" r="2"></circle>
                    </g>
                </g>
            </g>
        </g>
    </g>
</svg>